<svg width="41" height="40" viewBox="0 0 41 40" fill="none" xmlns="http://www.w3.org/2000/svg">
<g id="carbon:ibm-event-automation">
<path id="Vector" d="M5.5 30C6.88071 30 8 28.8807 8 27.5C8 26.1193 6.88071 25 5.5 25C4.11929 25 3 26.1193 3 27.5C3 28.8807 4.11929 30 5.5 30Z" fill="#666666"/>
<path id="Vector_2" d="M17.3749 37.5C15.4854 37.4973 13.6237 37.0451 11.9436 36.1807C10.2635 35.3163 8.81312 34.0645 7.7124 32.5288L9.7449 31.0738C10.614 32.2866 11.7592 33.2752 13.086 33.9579C14.4127 34.6406 15.8828 34.9978 17.3749 35C22.3362 35 26.4474 31.125 26.7337 26.1775L29.2299 26.3225C28.8674 32.59 23.6587 37.5 17.3749 37.5Z" fill="#666666"/>
<path id="Vector_3" d="M35.5 31.25C36.8807 31.25 38 30.1307 38 28.75C38 27.3693 36.8807 26.25 35.5 26.25C34.1193 26.25 33 27.3693 33 28.75C33 30.1307 34.1193 31.25 35.5 31.25Z" fill="#666666"/>
<path id="Vector_4" d="M38.8013 23.8687L36.3962 23.1875C36.6317 22.3537 36.7507 21.4914 36.75 20.625C36.75 15.4562 32.545 11.25 27.375 11.25C26.0438 11.2467 24.7275 11.5294 23.515 12.0787L22.485 9.80125C24.021 9.10484 25.6885 8.74634 27.375 8.75C33.9225 8.75 39.25 14.0775 39.25 20.625C39.25 21.725 39.1 22.8175 38.8013 23.8687ZM26.0175 18.2312L22.2675 14.4812C21.7962 14.0112 21.1675 13.75 20.5 13.75C19.8325 13.75 19.2038 14.01 18.7325 14.4825L14.9825 18.2325C14.495 18.72 14.25 19.36 14.25 20C14.25 20.64 14.495 21.28 14.9825 21.7675L18.7325 25.5175C19.2038 25.99 19.8325 26.25 20.5 26.25C21.1675 26.25 21.7962 25.99 22.2675 25.5175L26.0175 21.7675C26.505 21.28 26.75 20.64 26.75 20C26.75 19.36 26.505 18.72 26.0175 18.2325M20.5 23.75L16.75 20L20.5 16.25L24.25 20L20.5 23.75Z" fill="#666666"/>
<path id="Vector_5" d="M20.5 6.25C21.8807 6.25 23 5.13071 23 3.75C23 2.36929 21.8807 1.25 20.5 1.25C19.1193 1.25 18 2.36929 18 3.75C18 5.13071 19.1193 6.25 20.5 6.25Z" fill="#666666"/>
<path id="Vector_6" d="M10.5313 24.8525C8.6324 23.84 7.04471 22.3301 5.93824 20.4845C4.83177 18.6388 4.24819 16.5269 4.25 14.375C4.25 8.09125 9.16001 2.88375 15.4275 2.52L15.5725 5.01625C13.5334 5.138 11.5898 5.92225 10.0372 7.24978C8.48464 8.57731 7.408 10.3755 6.971 12.371C6.53399 14.3664 6.76052 16.45 7.61614 18.3049C8.47176 20.1598 9.90967 21.6846 11.7113 22.6475L10.5313 24.8525Z" fill="#666666"/>
</g>
</svg>
