<svg width="41" height="40" viewBox="0 0 41 40" fill="none" xmlns="http://www.w3.org/2000/svg">
<g id="carbon:layers">
<path id="Vector" d="M20.5 30C20.2931 29.9999 20.0895 29.9484 19.9075 29.85L3.65747 21.1L4.84247 18.9L20.5 27.33L36.1575 18.9L37.3425 21.1L21.0925 29.85C20.9105 29.9484 20.7069 29.9999 20.5 30Z" fill="#666666"/>
<path id="Vector_2" d="M20.5 37.5C20.2931 37.5 20.0895 37.4484 19.9075 37.35L3.6575 28.6L4.8425 26.4L20.5 34.83L36.1575 26.4L37.3425 28.6L21.0925 37.35C20.9105 37.4484 20.7069 37.5 20.5 37.5ZM20.5 22.5C20.2931 22.5 20.0895 22.4484 19.9075 22.35L3.6575 13.6C3.45906 13.4929 3.29329 13.3341 3.17776 13.1405C3.06222 12.9468 3.00122 12.7255 3.00122 12.5C3.00122 12.2745 3.06222 12.0532 3.17776 11.8596C3.29329 11.6659 3.45906 11.5071 3.6575 11.4L19.9075 2.65C20.0895 2.55176 20.2931 2.50032 20.5 2.50032C20.7069 2.50032 20.9105 2.55176 21.0925 2.65L37.3425 11.4C37.5409 11.5071 37.7067 11.6659 37.8222 11.8596C37.9378 12.0532 37.9988 12.2745 37.9988 12.5C37.9988 12.7255 37.9378 12.9468 37.8222 13.1405C37.7067 13.3341 37.5409 13.4929 37.3425 13.6L21.0925 22.35C20.9105 22.4484 20.7069 22.5 20.5 22.5ZM6.8875 12.5L20.5 19.83L34.1125 12.5L20.5 5.17001L6.8875 12.5Z" fill="#666666"/>
</g>
</svg>
