<svg width="485" height="118" viewBox="0 0 485 118" fill="none" xmlns="http://www.w3.org/2000/svg">
<path d="M476.185 34.043H469.495V22.2725H476.185V34.043ZM476.185 90.506H469.495V40.061H476.185V90.506Z" fill="#393939"/>
<path d="M462.356 65.195V65.549V90.506H455.756V82.6295C450.226 88.8835 443.447 91.8925 435.419 91.6565C428.402 91.4205 422.426 88.736 417.491 83.603C412.555 78.47 410.088 72.3635 410.088 65.2835C410.088 57.9085 412.734 51.5955 418.026 46.3445C423.318 41.0345 429.651 38.527 437.025 38.822C444.16 39.058 450.226 41.772 455.221 46.964C460.215 52.097 462.594 58.174 462.356 65.195ZM455.577 64.664C455.458 59.354 453.556 54.811 449.869 51.035C446.182 47.259 441.752 45.371 436.579 45.371C431.168 45.371 426.559 47.259 422.753 51.035C418.948 54.811 417.015 59.3835 416.956 64.7525C416.837 70.0625 418.591 74.7235 422.218 78.7355C425.905 82.6885 430.335 84.783 435.508 85.019C441.098 85.255 445.855 83.3375 449.78 79.2665C453.764 75.1365 455.696 70.269 455.577 64.664Z" fill="#393939"/>
<path d="M407.287 91.391H400.508V79.6205H407.287V91.391Z" fill="#393939"/>
<path d="M397.474 67.5845H351.805C352.341 72.6585 354.511 76.8475 358.317 80.1515C362.122 83.4555 366.612 85.078 371.785 85.019C379.813 84.901 385.551 81.2135 389 73.9565H396.225C394.322 79.3845 391.111 83.6915 386.592 86.8775C382.072 90.0635 377.048 91.686 371.518 91.745C364.56 91.863 358.406 89.3555 353.054 84.2225C347.702 79.0305 344.967 72.865 344.848 65.726C344.67 58.174 347.346 51.684 352.876 46.256C358.465 40.769 365.036 38.232 372.588 38.645C379.367 39.058 385.254 41.831 390.249 46.964C395.065 52.038 397.474 57.702 397.474 63.956V67.5845ZM390.784 61.3895C389.832 56.6695 387.603 52.864 384.094 49.973C380.586 47.023 376.394 45.5185 371.518 45.4595C366.642 45.4005 362.36 46.846 358.673 49.796C355.046 52.746 352.757 56.6105 351.805 61.3895H390.784Z" fill="#393939"/>
<path d="M340.551 75.461C340.908 80.004 339.302 83.957 335.734 87.32C332.167 90.624 328.064 92.1285 323.425 91.8335C319.144 91.5385 315.546 89.8275 312.633 86.7005C309.778 83.5735 308.351 79.8565 308.351 75.5495H315.398V77.231C315.398 78.942 316.349 80.712 318.252 82.541C320.155 84.37 322.177 85.255 324.317 85.196C327.172 85.137 329.431 84.2815 331.096 82.6295C332.583 81.0955 333.356 79.0895 333.415 76.6115C333.475 72.3045 331.007 69.3545 326.012 67.7615L320.036 65.903C313.792 63.956 310.522 59.7375 310.224 53.2475C310.046 49.3535 311.354 46.02 314.149 43.247C317.003 40.474 320.422 38.999 324.406 38.822C327.855 38.645 331.066 39.766 334.04 42.185C337.072 44.545 338.707 47.495 338.945 51.035L339.035 52.5395H331.899V51.389C331.899 49.619 331.126 48.203 329.58 47.141C328.093 46.02 326.369 45.4595 324.406 45.4595C322.504 45.5185 320.839 46.197 319.412 47.495C318.044 48.793 317.33 50.4155 317.271 52.3625C317.033 55.9615 319.203 58.528 323.782 60.062L329.669 62.009C336.448 64.31 340.075 68.794 340.551 75.461Z" fill="#393939"/>
<path d="M301.212 65.1151V65.4691V90.4261H294.612V82.5496C289.082 88.8036 282.303 91.8126 274.275 91.5766C267.258 91.3406 261.282 88.6561 256.347 83.5231C251.411 78.3901 248.944 72.2836 248.944 65.2036C248.944 57.8286 251.59 51.5156 256.882 46.2646C262.174 40.9546 268.507 38.4471 275.881 38.7421C283.016 38.9781 289.082 41.6921 294.076 46.8841C299.071 52.0171 301.45 58.0941 301.212 65.1151ZM294.433 64.5841C294.314 59.2741 292.411 54.7311 288.725 50.9551C285.038 47.1791 280.608 45.2911 275.435 45.2911C270.023 45.2911 265.415 47.1791 261.609 50.9551C257.804 54.7311 255.871 59.3036 255.812 64.6726C255.693 69.9826 257.447 74.6436 261.074 78.6556C264.761 82.6086 269.191 84.7031 274.364 84.9391C279.954 85.1751 284.711 83.2576 288.636 79.1866C292.62 75.0566 294.552 70.1891 294.433 64.5841Z" fill="#7371D8"/>
<path d="M184.85 67.5845H139.182C139.718 72.6585 141.888 76.8475 145.694 80.1515C149.499 83.4555 153.989 85.078 159.162 85.019C167.19 84.901 172.928 81.2135 176.377 73.9565H183.602C181.699 79.3845 178.488 83.6915 173.969 86.8775C169.449 90.0635 164.425 91.686 158.895 91.745C151.937 91.863 145.783 89.3555 140.431 84.2225C135.079 79.0305 132.344 72.865 132.225 65.726C132.047 58.174 134.723 51.684 140.253 46.256C145.842 40.769 152.413 38.232 159.965 38.645C166.744 39.058 172.631 41.831 177.626 46.964C182.442 52.038 184.85 57.702 184.85 63.956V67.5845ZM178.161 61.3895C177.209 56.6695 174.979 52.864 171.471 49.973C167.963 47.023 163.771 45.5185 158.895 45.4595C154.019 45.4005 149.737 46.846 146.05 49.796C142.423 52.746 140.134 56.6105 139.182 61.3895H178.161Z" fill="#393939"/>
<path d="M127.928 75.461C128.285 80.004 126.679 83.957 123.111 87.32C119.543 90.624 115.44 92.1285 110.802 91.8335C106.521 91.5385 102.923 89.8275 100.01 86.7005C97.1554 83.5735 95.7283 79.8565 95.7283 75.5495H102.775V77.231C102.775 78.942 103.726 80.712 105.629 82.541C107.532 84.37 109.554 85.255 111.694 85.196C114.548 85.137 116.808 84.2815 118.473 82.6295C119.96 81.0955 120.733 79.0895 120.792 76.6115C120.852 72.3045 118.384 69.3545 113.389 67.7615L107.413 65.903C101.169 63.956 97.8987 59.7375 97.6014 53.2475C97.423 49.3535 98.7312 46.02 101.526 43.247C104.38 40.474 107.799 38.999 111.783 38.822C115.232 38.645 118.443 39.766 121.417 42.185C124.449 44.545 126.084 47.495 126.322 51.035L126.411 52.5395H119.276V51.389C119.276 49.619 118.503 48.203 116.957 47.141C115.47 46.02 113.746 45.4595 111.783 45.4595C109.881 45.5185 108.216 46.197 106.788 47.495C105.421 48.793 104.707 50.4155 104.648 52.3625C104.41 55.9615 106.58 58.528 111.159 60.062L117.046 62.009C123.825 64.31 127.452 68.794 127.928 75.461Z" fill="#393939"/>
<path d="M88.2198 34.043H81.5302V22.2725H88.2198V34.043ZM88.2198 90.506H81.5302V40.061H88.2198V90.506Z" fill="#393939"/>
<path d="M75.5485 40.061L56.4607 90.506H48.5223L37.4621 57.1415L27.0262 90.506H19.2662L0 40.061H7.22483L23.0124 82.0985L34.7862 46.1675H40.5839L52.1793 81.833L68.2345 40.061H75.5485Z" fill="#393939"/>
<path fill-rule="evenodd" clip-rule="evenodd" d="M196.973 22.125L197.445 22.6291V47.7605C202.44 42.0375 208.684 39.058 216.176 38.822C223.49 38.527 229.793 41.0345 235.086 46.3445C240.437 51.6545 243.113 57.9675 243.113 65.2835C243.113 72.3635 240.645 78.47 235.71 83.603C230.775 88.736 224.769 91.4205 217.693 91.6565C210.379 91.8925 204.016 89.3555 198.605 84.0455C193.194 78.7355 190.577 72.452 190.756 65.195V24.0812C189.561 22.0451 185.824 14.6239 185.824 1.84511C185.824 1.14638 186.37 0.508583 187.237 0.195084C188.1 -0.1182 189.135 -0.0501415 189.912 0.370306L209.313 10.87C213.528 9.97967 227.538 7.3764 247.146 7.3764C266.753 7.3764 280.763 9.97967 284.979 10.8703L304.379 0.370522C305.153 -0.0499254 306.186 -0.1182 307.054 0.1953C307.921 0.508583 308.467 1.1466 308.467 1.84533C308.467 16.8585 303.306 24.4765 303.086 24.7936C303.086 24.7936 303.081 24.8061 303.068 24.8308C302.754 25.4637 298.455 34.1134 300.777 45.832C300.976 46.8406 300.005 47.7752 298.61 47.9191C298.485 47.9319 298.365 47.9375 298.245 47.9375C296.993 47.9375 295.899 47.2738 295.718 46.3555C293.096 33.1123 298.212 23.6801 298.429 23.2836L298.436 23.2729C298.655 22.9362 302.514 17.0137 303.24 5.59717L287.005 14.3823C286.335 14.7455 285.464 14.8468 284.667 14.6569C284.514 14.6202 269.4 11.0636 247.146 11.0636C224.891 11.0636 209.775 14.6199 209.624 14.6569C208.827 14.8468 207.956 14.7455 207.286 14.3823L191.051 5.59717C191.758 16.7107 196.555 21.6909 196.973 22.125ZM230.358 51.1235C234.164 54.8995 236.126 59.4425 236.245 64.7525C236.305 70.1215 234.521 74.7825 230.893 78.7355C227.266 82.6885 222.836 84.783 217.603 85.019C212.073 85.255 207.316 83.3375 203.332 79.2665C199.348 75.1365 197.445 70.269 197.624 64.664C197.742 59.354 199.645 54.811 203.332 51.035C207.019 47.259 211.449 45.371 216.622 45.371C222.033 45.371 226.612 47.2885 230.358 51.1235Z" fill="#7371D8"/>
<path d="M260.689 92.499C259.318 91.9313 257.475 90.3178 256.565 91.166L247.146 99.9263L237.726 91.166C236.813 90.3181 234.967 91.9313 233.602 92.499C232.238 93.0631 231.869 94.2079 232.779 95.0561L244.671 106.117C245.222 106.63 246.149 106.937 247.145 106.937C248.138 106.937 249.066 106.63 249.619 106.117L261.512 95.0561C262.422 94.2081 262.054 93.0631 260.689 92.499Z" fill="#7371D8"/>
<path d="M224.847 64.5312C224.847 68.6044 221.519 71.9062 217.414 71.9062C213.309 71.9062 209.981 68.6044 209.981 64.5312C209.981 60.4581 213.309 57.1562 217.414 57.1562C221.519 57.1562 224.847 60.4581 224.847 64.5312Z" fill="#7371D8"/>
<path d="M282.452 64.5312C282.452 68.6044 279.124 71.9062 275.019 71.9062C270.914 71.9062 267.586 68.6044 267.586 64.5312C267.586 60.4581 270.914 57.1562 275.019 57.1562C279.124 57.1562 282.452 60.4581 282.452 64.5312Z" fill="#7371D8"/>
</svg>
