<svg width="197" height="50" viewBox="0 0 197 50" fill="none" xmlns="http://www.w3.org/2000/svg">
<g id="logo">
<path id="Vector" d="M193.419 14.7832H190.702V9.96461H193.419V14.7832ZM193.419 37.8979H190.702V17.2468H193.419V37.8979Z" fill="#393939"/>
<path id="Vector_2" d="M187.802 27.5361V27.681V37.8978H185.121V34.6734C182.875 37.2336 180.122 38.4654 176.861 38.3688C174.011 38.2722 171.584 37.1732 169.579 35.0719C167.574 32.9706 166.572 30.4707 166.572 27.5723C166.572 24.5531 167.647 21.9687 169.796 19.8191C171.946 17.6453 174.518 16.6188 177.513 16.7396C180.412 16.8362 182.875 17.9472 184.904 20.0727C186.933 22.174 187.899 24.6618 187.802 27.5361ZM185.049 27.3187C185.001 25.1449 184.228 23.2851 182.73 21.7393C181.233 20.1935 179.433 19.4206 177.332 19.4206C175.134 19.4206 173.262 20.1935 171.716 21.7393C170.171 23.2851 169.386 25.157 169.361 27.3549C169.313 29.5287 170.026 31.4368 171.499 33.0792C172.996 34.6975 174.796 35.5549 176.897 35.6516C179.168 35.7482 181.1 34.9632 182.694 33.2966C184.312 31.6059 185.097 29.6132 185.049 27.3187Z" fill="#393939"/>
<path id="Vector_3" d="M165.434 38.2601H162.681V33.4416H165.434V38.2601Z" fill="#393939"/>
<path id="Vector_4" d="M161.448 28.5143H142.898C143.116 30.5915 143.997 32.3063 145.543 33.6589C147.089 35.0115 148.912 35.6757 151.014 35.6516C154.274 35.6033 156.605 34.0937 158.006 31.1228H160.941C160.168 33.3449 158.864 35.1081 157.028 36.4124C155.192 37.7167 153.151 38.3809 150.905 38.405C148.079 38.4533 145.579 37.4268 143.406 35.3255C141.232 33.2 140.121 30.676 140.072 27.7535C140 24.6618 141.087 22.005 143.333 19.7829C145.603 17.5366 148.272 16.498 151.34 16.6671C154.093 16.8362 156.485 17.9714 158.513 20.0727C160.47 22.1499 161.448 24.4686 161.448 27.0289V28.5143ZM158.731 25.9782C158.344 24.0459 157.439 22.488 156.014 21.3045C154.588 20.0969 152.886 19.481 150.905 19.4568C148.925 19.4327 147.186 20.0244 145.688 21.2321C144.215 22.4397 143.285 24.0218 142.898 25.9782H158.731Z" fill="#393939"/>
<path id="Vector_5" d="M138.327 31.7388C138.472 33.5986 137.82 35.2168 136.37 36.5936C134.921 37.9462 133.255 38.5621 131.371 38.4413C129.632 38.3205 128.17 37.6201 126.987 36.34C125.828 35.0598 125.248 33.5382 125.248 31.775H128.11V32.4634C128.11 33.1638 128.496 33.8884 129.269 34.6372C130.042 35.3859 130.863 35.7482 131.733 35.7241C132.892 35.6999 133.81 35.3497 134.486 34.6734C135.09 34.0454 135.404 33.2242 135.428 32.2098C135.453 30.4466 134.45 29.2389 132.421 28.5868L129.994 27.8259C127.458 27.0289 126.129 25.3019 126.009 22.6451C125.936 21.051 126.468 19.6863 127.603 18.5511C128.762 17.4159 130.151 16.8121 131.769 16.7396C133.17 16.6671 134.474 17.1261 135.682 18.1163C136.914 19.0825 137.578 20.2901 137.675 21.7393L137.711 22.3552H134.813V21.8842C134.813 21.1597 134.499 20.58 133.871 20.1452C133.267 19.6863 132.566 19.4568 131.769 19.4568C130.996 19.481 130.32 19.7588 129.74 20.2901C129.185 20.8215 128.895 21.4857 128.871 22.2828C128.774 23.7561 129.656 24.8068 131.516 25.4348L133.907 26.2318C136.66 27.1738 138.134 29.0095 138.327 31.7388Z" fill="#393939"/>
<path id="Vector_6" d="M122.348 27.5034V27.6483V37.8651H119.667V34.6406C117.421 37.2009 114.667 38.4327 111.407 38.3361C108.557 38.2395 106.129 37.1405 104.124 35.0392C102.12 32.9378 101.117 30.438 101.117 27.5396C101.117 24.5204 102.192 21.936 104.342 19.7864C106.491 17.6126 109.064 16.5861 112.059 16.7068C114.957 16.8035 117.421 17.9145 119.45 20.04C121.479 22.1413 122.445 24.6291 122.348 27.5034ZM119.595 27.286C119.546 25.1122 118.773 23.2524 117.276 21.7066C115.778 20.1608 113.979 19.3879 111.878 19.3879C109.68 19.3879 107.808 20.1608 106.262 21.7066C104.716 23.2524 103.931 25.1243 103.907 27.3222C103.859 29.496 104.571 31.4041 106.045 33.0465C107.542 34.6648 109.342 35.5222 111.443 35.6188C113.713 35.7155 115.646 34.9305 117.24 33.2639C118.858 31.5732 119.643 29.5805 119.595 27.286Z" fill="#7371D8"/>
<path id="Vector_7" d="M75.0836 28.5143H56.5339C56.7513 30.5915 57.6329 32.3063 59.1787 33.6589C60.7245 35.0115 62.5481 35.6757 64.6494 35.6516C67.9101 35.6033 70.2409 34.0937 71.6418 31.1228H74.5764C73.8035 33.3449 72.4992 35.1081 70.6636 36.4124C68.8279 37.7167 66.787 38.3809 64.5407 38.405C61.7148 38.4533 59.2149 37.4268 57.0411 35.3255C54.8673 33.2 53.7563 30.676 53.708 27.7535C53.6355 24.6618 54.7224 22.005 56.9687 19.7829C59.2391 17.5366 61.908 16.498 64.9755 16.6671C67.729 16.8362 70.1201 17.9714 72.149 20.0727C74.1054 22.1499 75.0836 24.4686 75.0836 27.0289V28.5143ZM72.3664 25.9782C71.9799 24.0459 71.0742 22.488 69.6491 21.3045C68.2241 20.0969 66.5213 19.481 64.5407 19.4568C62.5602 19.4327 60.8211 20.0244 59.3236 21.2321C57.8503 22.4397 56.9204 24.0218 56.5339 25.9782H72.3664Z" fill="#393939"/>
<path id="Vector_8" d="M51.9624 31.7388C52.1073 33.5986 51.4552 35.2168 50.006 36.5936C48.5568 37.9462 46.8902 38.5621 45.0063 38.4413C43.2672 38.3205 41.806 37.6201 40.6225 36.34C39.4631 35.0598 38.8834 33.5382 38.8834 31.775H41.7456V32.4634C41.7456 33.1638 42.132 33.8884 42.9049 34.6372C43.6778 35.3859 44.4991 35.7482 45.3686 35.7241C46.5279 35.6999 47.4458 35.3497 48.122 34.6734C48.7259 34.0454 49.0399 33.2242 49.064 32.2098C49.0882 30.4466 48.0858 29.2389 46.0569 28.5868L43.6295 27.8259C41.0934 27.0289 39.765 25.3019 39.6443 22.6451C39.5718 21.051 40.1032 19.6863 41.2384 18.5511C42.3977 17.4159 43.7865 16.8121 45.4048 16.7396C46.8057 16.6671 48.11 17.1261 49.3176 18.1163C50.5494 19.0825 51.2137 20.2901 51.3103 21.7393L51.3465 22.3552H48.4481V21.8842C48.4481 21.1597 48.1341 20.58 47.5061 20.1452C46.9023 19.6863 46.2019 19.4568 45.4048 19.4568C44.6319 19.481 43.9556 19.7588 43.3759 20.2901C42.8204 20.8215 42.5306 21.4857 42.5064 22.2828C42.4098 23.7561 43.2914 24.8068 45.1512 25.4348L47.5424 26.2318C50.2958 27.1738 51.7692 29.0095 51.9624 31.7388Z" fill="#393939"/>
<path id="Vector_9" d="M35.8336 14.7832H33.1163V9.96461H35.8336V14.7832ZM35.8336 37.8979H33.1163V17.2468H35.8336V37.8979Z" fill="#393939"/>
<path id="Vector_10" d="M30.6867 17.2468L22.9335 37.8979H19.7091L15.2166 24.2392L10.9777 37.8979H7.82566L0 17.2468H2.93462L9.34731 34.456L14.1297 19.7467H16.4846L21.1945 34.3473L27.7159 17.2468H30.6867Z" fill="#393939"/>
<path id="Union" fill-rule="evenodd" clip-rule="evenodd" d="M80.0077 9.90421L80.1994 10.1106V20.3988C82.2283 18.0559 84.7644 16.8362 87.8077 16.7396C90.7785 16.6188 93.3388 17.6453 95.4884 19.8191C97.6622 21.9929 98.7491 24.5773 98.7491 27.5723C98.7491 30.4707 97.7467 32.9706 95.742 35.0719C93.7373 37.1733 91.2978 38.2722 88.4236 38.3688C85.4527 38.4655 82.8683 37.4269 80.6704 35.2531C78.4724 33.0793 77.4097 30.507 77.4822 27.5361V10.705C76.9971 9.87151 75.4789 6.83345 75.4789 1.60209C75.4789 1.31604 75.701 1.05494 76.0529 0.926604C76.4036 0.798353 76.824 0.826214 77.1394 0.998336L85.0198 5.29669C86.7322 4.93219 92.4226 3.86647 100.387 3.86647C108.351 3.86647 114.042 4.93219 115.754 5.29678L123.635 0.998424C123.949 0.826302 124.368 0.798353 124.721 0.926692C125.073 1.05494 125.295 1.31613 125.295 1.60218C125.295 7.74823 123.199 10.8669 123.109 10.9967C123.109 10.9967 123.107 11.0018 123.102 11.0119C122.974 11.271 121.228 14.812 122.171 19.6093C122.252 20.0222 121.858 20.4048 121.291 20.4637C121.24 20.469 121.192 20.4713 121.143 20.4713C120.634 20.4713 120.19 20.1995 120.116 19.8236C119.051 14.4022 121.129 10.5408 121.217 10.3785L121.22 10.3741C121.309 10.2363 122.877 7.81176 123.172 3.13809L116.577 6.73452C116.305 6.8832 115.951 6.92468 115.628 6.84694C115.565 6.8319 109.426 5.37594 100.387 5.37594C91.3475 5.37594 85.2076 6.83181 85.1464 6.84694C84.8226 6.92468 84.4687 6.8832 84.1968 6.73452L77.6023 3.13809C77.8894 7.68774 79.8378 9.7265 80.0077 9.90421ZM93.5682 21.7755C95.114 23.3214 95.9111 25.1812 95.9594 27.355C95.9836 29.5529 95.259 31.461 93.7856 33.0793C92.3123 34.6975 90.5128 35.555 88.3874 35.6516C86.1411 35.7482 84.2088 34.9632 82.5906 33.2966C80.9723 31.6059 80.1994 29.6133 80.2719 27.3187C80.3202 25.1449 81.0931 23.2851 82.5906 21.7393C84.0881 20.1935 85.8875 19.4206 87.9888 19.4206C90.1868 19.4206 92.0466 20.2056 93.5682 21.7755Z" fill="#060606"/>
<path id="Vector_11" d="M105.888 38.7137C105.331 38.4813 104.582 37.8208 104.213 38.168L100.387 41.7543L96.561 38.168C96.1902 37.8209 95.4403 38.4813 94.8859 38.7137C94.3316 38.9446 94.1818 39.4133 94.5514 39.7605L99.382 44.2887C99.6055 44.4985 99.9822 44.6245 100.387 44.6245C100.79 44.6245 101.167 44.4985 101.392 44.2887L106.222 39.7605C106.592 39.4134 106.442 38.9446 105.888 38.7137Z" fill="#7371D8"/>
<path id="Ellipse 1" d="M91.3295 27.2644C91.3295 28.9318 89.9778 30.2835 88.3104 30.2835C86.6429 30.2835 85.2912 28.9318 85.2912 27.2644C85.2912 25.5969 86.6429 24.2452 88.3104 24.2452C89.9778 24.2452 91.3295 25.5969 91.3295 27.2644Z" fill="#7371D8"/>
<path id="Ellipse 2" d="M114.728 27.2644C114.728 28.9318 113.376 30.2835 111.709 30.2835C110.041 30.2835 108.69 28.9318 108.69 27.2644C108.69 25.5969 110.041 24.2452 111.709 24.2452C113.376 24.2452 114.728 25.5969 114.728 27.2644Z" fill="#7371D8"/>
</g>
</svg>
